<svg id="logo" xmlns="http://www.w3.org/2000/svg" width="50" height="50"><path id="shape" d="M24.93.082a10.227 10.227 0 0 1 2.219-.015 25 25 0 0 1 22.826 23.084 23.691 23.691 0 0 0 .025 3.4 25.273 25.273 0 0 1-2.5 9.4 24.985 24.985 0 0 1-20.067 13.9 14.546 14.546 0 0 1-2.153.128 4.152 4.152 0 0 1-1.425-.074q2.635-7.412 5.285-14.821c1.929-.036 3.86.013 5.789-.023a3.106 3.106 0 0 0 2.853-1.988c1.632-4.592 3.3-9.172 4.885-13.784a3.576 3.576 0 0 0 .2-2.2 2.859 2.859 0 0 0-2.035-1.823 8.613 8.613 0 0 0-2.435-.17c-2.476-.007-4.953.013-7.428-.011l-.161.328q-6.016 16.878-12.039 33.764A25.034 25.034 0 0 1 .489 29.708 32.776 32.776 0 0 1 0 25.124a26.428 26.428 0 0 1 1.8-9.376A24.934 24.934 0 0 1 19.427.644C15.383 11.852 11.433 23.1 7.391 34.305a2.791 2.791 0 0 0 .794.051c1.473-.007 2.948 0 4.421 0 .2 0 .18-.281.264-.409 1.775-5.011 3.572-10.015 5.353-15.023a8.292 8.292 0 0 1 .349-.924c.923.016 1.847 0 2.77.01-1.936 5.428-3.856 10.865-5.821 16.284a1.786 1.786 0 0 0 .644.061c1.547-.014 3.095.01 4.642-.011 1.748-4.933 3.518-9.857 5.271-14.787a3.553 3.553 0 0 0-.188-3.131 3 3 0 0 0-2.449-1.255c-1.288-.038-2.578 0-3.867-.02 1.772-5.028 3.6-10.038 5.356-15.072" fill="#0096d6"/><path id="shape-2" data-name="shape" d="M4.766.1c.145-.165.4-.065.6-.094C6.036.017 6.71 0 7.385.014 5.815 4.54 4.171 9.041 2.627 13.577 1.754 13.639.874 13.6 0 13.6 1.594 9.1 3.172 4.6 4.766.1" transform="translate(30.218 18.194)" fill="#0096d6"/></svg>